<?xml version="1.0" encoding="UTF-8" standalone="no"?>
<svg xmlns="http://www.w3.org/2000/svg" width="800" height="600" viewBox="0 0 800 600">
  <rect width="800" height="600" fill="#2d2d2d"/>
  <rect x="100" y="100" width="600" height="400" fill="#3a3a3a"/>
  
  <!-- Beach Sand -->
  <path d="M100,500 Q400,450 700,500 L700,500 L100,500 Z" fill="#5d5d4d"/>
  
  <!-- Ocean -->
  <path d="M100,380 Q400,450 700,380 L700,500 Q400,450 100,500 Z" fill="#4a4a5a"/>
  
  <!-- Waves -->
  <path d="M150,420 Q170,410 190,420 Q210,430 230,420 Q250,410 270,420" fill="none" stroke="#606070" stroke-width="2"/>
  <path d="M350,450 Q370,440 390,450 Q410,460 430,450 Q450,440 470,450" fill="none" stroke="#606070" stroke-width="2"/>
  <path d="M550,420 Q570,410 590,420 Q610,430 630,420 Q650,410 670,420" fill="none" stroke="#606070" stroke-width="2"/>
  
  <!-- Sun -->
  <circle cx="600" cy="180" r="50" fill="#bb86fc"/>
  <circle cx="600" cy="180" r="40" fill="#9e6dce"/>
  
  <!-- Palm Tree -->
  <rect x="200" y="300" width="15" height="100" fill="#5d5d4d" transform="rotate(10, 200, 300)"/>
  <path d="M210,310 C240,290 260,300 250,330" fill="#5d5d4d"/>
  <path d="M210,310 C240,270 280,290 260,330" fill="#5d5d4d"/>
  <path d="M210,310 C190,290 170,300 180,330" fill="#5d5d4d"/>
  <path d="M210,310 C180,270 140,290 160,330" fill="#5d5d4d"/>
  
  <text x="400" y="550" font-family="Arial, sans-serif" font-size="24" fill="#bb86fc" text-anchor="middle">Beach Sunset</text>
</svg>